<?xml version="1.0" encoding="UTF-8" standalone="no"?><svg xmlns="http://www.w3.org/2000/svg" xmlns:xlink="http://www.w3.org/1999/xlink" contentStyleType="text/css" height="1157px" preserveAspectRatio="none" style="width:1582px;height:1157px;background:#FFFFFF;" version="1.1" viewBox="0 0 1582 1157" width="1582px" zoomAndPan="magnify"><defs/><g><text fill="#000000" font-family="sans-serif" font-size="14" font-weight="bold" lengthAdjust="spacing" textLength="384" x="597.75" y="35.1074">RBDC Activity diagram when update() function is called</text><ellipse cx="455.7813" cy="59.6211" fill="#222222" rx="10" ry="10" style="stroke:#222222;stroke-width:1.0;"/><rect fill="#F1F1F1" height="35.9609" rx="12.5" ry="12.5" style="stroke:#181818;stroke-width:0.5;" width="114" x="398.7813" y="89.6211"/><text fill="#000000" font-family="sans-serif" font-size="12" lengthAdjust="spacing" textLength="94" x="408.7813" y="112.5703">Update odometry</text><polygon fill="#F1F1F1" points="396.2813,145.582,515.2813,145.582,527.2813,157.582,515.2813,169.582,396.2813,169.582,384.2813,157.582,396.2813,145.582" style="stroke:#181818;stroke-width:0.5;"/><text fill="#000000" font-family="sans-serif" font-size="11" lengthAdjust="spacing" textLength="119" x="396.2813" y="162.1367">RBDC in standby mode ?</text><text fill="#000000" font-family="sans-serif" font-size="11" lengthAdjust="spacing" textLength="19" x="365.2813" y="154.8213">true</text><text fill="#000000" font-family="sans-serif" font-size="11" lengthAdjust="spacing" textLength="24" x="527.2813" y="154.8213">false</text><rect fill="#F1F1F1" height="51.9219" rx="12.5" ry="12.5" style="stroke:#181818;stroke-width:0.5;" width="105" x="34.5" y="179.582"/><text fill="#000000" font-family="sans-serif" font-size="12" lengthAdjust="spacing" textLength="85" x="44.5" y="202.5313">Shutdown PIDs</text><text fill="#000000" font-family="sans-serif" font-size="12" lengthAdjust="spacing" textLength="79" x="47.5" y="218.4922">dV and dTheta</text><rect fill="#DA70D6" height="35.9609" rx="12.5" ry="12.5" style="stroke:#181818;stroke-width:0.5;" width="152" x="11" y="266.5039"/><text fill="#000000" font-family="sans-serif" font-size="12" lengthAdjust="spacing" textLength="132" x="21" y="289.4531">status = RBDC_standby</text><rect fill="#F1F1F1" height="67.8828" rx="12.5" ry="12.5" style="stroke:#181818;stroke-width:0.5;" width="183" x="763.0625" y="179.582"/><text fill="#000000" font-family="sans-serif" font-size="12" lengthAdjust="spacing" textLength="114" x="797.5625" y="202.5313">Update dV error from</text><text fill="#000000" font-family="sans-serif" font-size="12" lengthAdjust="spacing" textLength="163" x="773.0625" y="218.4922">current odometry position and</text><text fill="#000000" font-family="sans-serif" font-size="12" lengthAdjust="spacing" textLength="157" x="776.0625" y="234.4531">requested target X/Y position</text><polygon fill="#F1F1F1" points="780.5625,282.4648,928.5625,282.4648,940.5625,294.4648,928.5625,306.4648,780.5625,306.4648,768.5625,294.4648,780.5625,282.4648" style="stroke:#181818;stroke-width:0.5;"/><text fill="#000000" font-family="sans-serif" font-size="11" lengthAdjust="spacing" textLength="148" x="780.5625" y="299.0195">Robot inside the Target Zone ?</text><text fill="#000000" font-family="sans-serif" font-size="11" lengthAdjust="spacing" textLength="24" x="744.5625" y="291.7041">false</text><text fill="#000000" font-family="sans-serif" font-size="11" lengthAdjust="spacing" textLength="19" x="940.5625" y="291.7041">true</text><rect fill="#F1F1F1" height="35.9609" rx="12.5" ry="12.5" style="stroke:#181818;stroke-width:0.5;" width="148" x="355" y="386.4648"/><text fill="#000000" font-family="sans-serif" font-size="12" lengthAdjust="spacing" textLength="128" x="365" y="409.4141">reset dv_zone_reached</text><rect fill="#F1F1F1" height="67.8828" rx="12.5" ry="12.5" style="stroke:#181818;stroke-width:0.5;" width="183" x="337.5" y="492.3867"/><text fill="#000000" font-family="sans-serif" font-size="12" lengthAdjust="spacing" textLength="138" x="360" y="515.3359">Update dTheta error from</text><text fill="#000000" font-family="sans-serif" font-size="12" lengthAdjust="spacing" textLength="163" x="347.5" y="531.2969">current odometry position and</text><text fill="#000000" font-family="sans-serif" font-size="12" lengthAdjust="spacing" textLength="157" x="350.5" y="547.2578">requested target X/Y position</text><rect fill="#F1F1F1" height="51.9219" rx="12.5" ry="12.5" style="stroke:#181818;stroke-width:0.5;" width="182" x="338" y="595.2695"/><text fill="#000000" font-family="sans-serif" font-size="12" lengthAdjust="spacing" textLength="162" x="348" y="618.2188">Run PID dTheta with previous</text><text fill="#000000" font-family="sans-serif" font-size="12" lengthAdjust="spacing" textLength="119" x="369.5" y="634.1797">compute dTheta Error</text><polygon fill="#F1F1F1" points="360.5,682.1914,497.5,682.1914,509.5,694.1914,497.5,706.1914,360.5,706.1914,348.5,694.1914,360.5,682.1914" style="stroke:#181818;stroke-width:0.5;"/><text fill="#000000" font-family="sans-serif" font-size="11" lengthAdjust="spacing" textLength="137" x="360.5" y="698.7461">robot allign with target X/Y ?</text><text fill="#000000" font-family="sans-serif" font-size="11" lengthAdjust="spacing" textLength="19" x="329.5" y="691.4307">true</text><text fill="#000000" font-family="sans-serif" font-size="11" lengthAdjust="spacing" textLength="24" x="509.5" y="691.4307">false</text><rect fill="#F1F1F1" height="67.8828" rx="12.5" ry="12.5" style="stroke:#181818;stroke-width:0.5;" width="114" x="190.5" y="716.1914"/><text fill="#000000" font-family="sans-serif" font-size="12" lengthAdjust="spacing" textLength="63" x="216" y="739.1406">Run PID dV</text><text fill="#000000" font-family="sans-serif" font-size="12" lengthAdjust="spacing" textLength="72" x="211.5" y="755.1016">with previous</text><text fill="#000000" font-family="sans-serif" font-size="12" lengthAdjust="spacing" textLength="94" x="200.5" y="771.0625">compute dV error</text><rect fill="#DA70D6" height="35.9609" rx="12.5" ry="12.5" style="stroke:#181818;stroke-width:0.5;" width="149" x="173" y="819.0742"/><text fill="#000000" font-family="sans-serif" font-size="12" lengthAdjust="spacing" textLength="129" x="183" y="842.0234">status = RBDC_moving</text><polygon fill="#F1F1F1" points="555.5,716.1914,665.5,716.1914,677.5,728.1914,665.5,740.1914,555.5,740.1914,543.5,728.1914,555.5,716.1914" style="stroke:#181818;stroke-width:0.5;"/><text fill="#000000" font-family="sans-serif" font-size="11" lengthAdjust="spacing" textLength="110" x="555.5" y="732.7461">robot already moving ?</text><text fill="#000000" font-family="sans-serif" font-size="11" lengthAdjust="spacing" textLength="23" x="520.5" y="725.4307">true)</text><text fill="#000000" font-family="sans-serif" font-size="11" lengthAdjust="spacing" textLength="24" x="677.5" y="725.4307">false</text><rect fill="#F1F1F1" height="35.9609" rx="12.5" ry="12.5" style="stroke:#181818;stroke-width:0.5;" width="140" x="411.5" y="750.1914"/><text fill="#000000" font-family="sans-serif" font-size="12" lengthAdjust="spacing" textLength="120" x="421.5" y="773.1406">Reduce PID dV output</text><rect fill="#DA70D6" height="35.9609" rx="12.5" ry="12.5" style="stroke:#181818;stroke-width:0.5;" width="259" x="352" y="821.1523"/><text fill="#000000" font-family="sans-serif" font-size="12" lengthAdjust="spacing" textLength="239" x="362" y="844.1016">status = RBDC_moving_and_correct_angle</text><rect fill="#DA70D6" height="35.9609" rx="12.5" ry="12.5" style="stroke:#181818;stroke-width:0.5;" width="217" x="631" y="750.1914"/><text fill="#000000" font-family="sans-serif" font-size="12" lengthAdjust="spacing" textLength="197" x="641" y="773.1406">status = RBDC_correct_inital_angle</text><polygon fill="#F1F1F1" points="610.5,863.1133,622.5,875.1133,610.5,887.1133,598.5,875.1133,610.5,863.1133" style="stroke:#181818;stroke-width:0.5;"/><polygon fill="#F1F1F1" points="429,893.1133,441,905.1133,429,917.1133,417,905.1133,429,893.1133" style="stroke:#181818;stroke-width:0.5;"/><polygon fill="#F1F1F1" points="1202.125,316.4648,1358.125,316.4648,1370.125,328.4648,1358.125,340.4648,1202.125,340.4648,1190.125,328.4648,1202.125,316.4648" style="stroke:#181818;stroke-width:0.5;"/><text fill="#000000" font-family="sans-serif" font-size="11" lengthAdjust="spacing" textLength="156" x="1202.125" y="333.0195">variable dv_zone_reached set ?</text><text fill="#000000" font-family="sans-serif" font-size="11" lengthAdjust="spacing" textLength="19" x="1171.125" y="325.7041">true</text><text fill="#000000" font-family="sans-serif" font-size="11" lengthAdjust="spacing" textLength="24" x="1370.125" y="325.7041">false</text><rect fill="#F1F1F1" height="35.9609" rx="12.5" ry="12.5" style="stroke:#181818;stroke-width:0.5;" width="114" x="1022.25" y="490.4258"/><text fill="#000000" font-family="sans-serif" font-size="12" lengthAdjust="spacing" textLength="94" x="1032.25" y="513.375">shutdown PID dV</text><rect fill="#F1F1F1" height="67.8828" rx="12.5" ry="12.5" style="stroke:#181818;stroke-width:0.5;" width="187" x="985.75" y="561.3867"/><text fill="#000000" font-family="sans-serif" font-size="12" lengthAdjust="spacing" textLength="138" x="1010.25" y="584.3359">Update dTheta error from</text><text fill="#000000" font-family="sans-serif" font-size="12" lengthAdjust="spacing" textLength="153" x="1002.75" y="600.2969">current odometry orientation</text><text fill="#000000" font-family="sans-serif" font-size="12" lengthAdjust="spacing" textLength="167" x="995.75" y="616.2578">and requested final orientation</text><polygon fill="#F1F1F1" points="1031.25,664.2695,1127.25,664.2695,1139.25,676.2695,1127.25,688.2695,1031.25,688.2695,1019.25,676.2695,1031.25,664.2695" style="stroke:#181818;stroke-width:0.5;"/><text fill="#000000" font-family="sans-serif" font-size="11" lengthAdjust="spacing" textLength="96" x="1031.25" y="680.8242">final angle correct ?</text><text fill="#000000" font-family="sans-serif" font-size="11" lengthAdjust="spacing" textLength="19" x="1000.25" y="673.5088">true</text><text fill="#000000" font-family="sans-serif" font-size="11" lengthAdjust="spacing" textLength="24" x="1139.25" y="673.5088">false</text><rect fill="#F1F1F1" height="35.9609" rx="12.5" ry="12.5" style="stroke:#181818;stroke-width:0.5;" width="138" x="908" y="698.2695"/><text fill="#000000" font-family="sans-serif" font-size="12" lengthAdjust="spacing" textLength="118" x="918" y="721.2188">shutdown PID dTheta</text><rect fill="#DA70D6" height="35.9609" rx="12.5" ry="12.5" style="stroke:#181818;stroke-width:0.5;" width="137" x="908.5" y="769.2305"/><text fill="#000000" font-family="sans-serif" font-size="12" lengthAdjust="spacing" textLength="117" x="918.5" y="792.1797">status = RBDC_done</text><rect fill="#F1F1F1" height="51.9219" rx="12.5" ry="12.5" style="stroke:#181818;stroke-width:0.5;" width="188" x="1087.5" y="698.2695"/><text fill="#000000" font-family="sans-serif" font-size="12" lengthAdjust="spacing" textLength="112" x="1125.5" y="721.2188">Run PID dTheta with</text><text fill="#000000" font-family="sans-serif" font-size="12" lengthAdjust="spacing" textLength="168" x="1097.5" y="737.1797">previous compute dTheta error</text><rect fill="#DA70D6" height="35.9609" rx="12.5" ry="12.5" style="stroke:#181818;stroke-width:0.5;" width="231" x="1066" y="785.1914"/><text fill="#000000" font-family="sans-serif" font-size="12" lengthAdjust="spacing" textLength="211" x="1076" y="808.1406">status = RBDC_correcting_final_angle</text><polygon fill="#F1F1F1" points="1079.25,827.1523,1091.25,839.1523,1079.25,851.1523,1067.25,839.1523,1079.25,827.1523" style="stroke:#181818;stroke-width:0.5;"/><polygon fill="#F1F1F1" points="1427.5,350.4648,1534.5,350.4648,1546.5,362.4648,1534.5,374.4648,1427.5,374.4648,1415.5,362.4648,1427.5,350.4648" style="stroke:#181818;stroke-width:0.5;"/><text fill="#000000" font-family="sans-serif" font-size="11" lengthAdjust="spacing" textLength="107" x="1427.5" y="367.0195">robot inside dv zone ?</text><text fill="#000000" font-family="sans-serif" font-size="11" lengthAdjust="spacing" textLength="19" x="1396.5" y="359.7041">true</text><text fill="#000000" font-family="sans-serif" font-size="11" lengthAdjust="spacing" textLength="24" x="1546.5" y="359.7041">false</text><rect fill="#F1F1F1" height="35.9609" rx="12.5" ry="12.5" style="stroke:#181818;stroke-width:0.5;" width="137" x="1337" y="384.4648"/><text fill="#000000" font-family="sans-serif" font-size="12" lengthAdjust="spacing" textLength="117" x="1347" y="407.4141">set dv_zone_reached</text><ellipse cx="1407" cy="466.9258" fill="#A80036" rx="1.5" ry="1.5" style="stroke:#A80036;stroke-width:1.0;"/><ellipse cx="1080.75" cy="466.9648" fill="#A80036" rx="1.5" ry="1.5" style="stroke:#A80036;stroke-width:1.0;"/><line style="stroke:#A80036;stroke-width:1.0;" x1="1405.5" x2="1079.25" y1="465.4258" y2="465.4258"/><line style="stroke:#A80036;stroke-width:1.0;" x1="1079.25" x2="1079.25" y1="465.4258" y2="465.4648"/><ellipse cx="1558" cy="443.9258" fill="#A80036" rx="1.5" ry="1.5" style="stroke:#A80036;stroke-width:1.0;"/><ellipse cx="430.5" cy="468.9258" fill="#A80036" rx="1.5" ry="1.5" style="stroke:#A80036;stroke-width:1.0;"/><line style="stroke:#A80036;stroke-width:1.0;" x1="1556.5" x2="429" y1="442.4258" y2="442.4258"/><line style="stroke:#A80036;stroke-width:1.0;" x1="429" x2="429" y1="442.4258" y2="467.4258"/><polygon fill="#F1F1F1" points="854.5625,923.1133,866.5625,935.1133,854.5625,947.1133,842.5625,935.1133,854.5625,923.1133" style="stroke:#181818;stroke-width:0.5;"/><polygon fill="#F1F1F1" points="455.7813,953.1133,467.7813,965.1133,455.7813,977.1133,443.7813,965.1133,455.7813,953.1133" style="stroke:#181818;stroke-width:0.5;"/><rect fill="#F1F1F1" height="51.9219" rx="12.5" ry="12.5" style="stroke:#181818;stroke-width:0.5;" width="198" x="356.7813" y="997.1133"/><text fill="#000000" font-family="sans-serif" font-size="12" lengthAdjust="spacing" textLength="178" x="366.7813" y="1020.0625">Update Motor Base speeds from</text><text fill="#000000" font-family="sans-serif" font-size="12" lengthAdjust="spacing" textLength="169" x="371.2813" y="1036.0234">PID dV and PID dTheta outputs</text><rect fill="#DA70D6" height="35.9609" rx="12.5" ry="12.5" style="stroke:#181818;stroke-width:0.5;" width="132" x="389.7813" y="1069.0352"/><text fill="#000000" font-family="sans-serif" font-size="12" lengthAdjust="spacing" textLength="112" x="399.7813" y="1091.9844">Return RBDC status</text><ellipse cx="455.7813" cy="1135.9961" fill="none" rx="11" ry="11" style="stroke:#222222;stroke-width:1.0;"/><ellipse cx="455.7813" cy="1135.9961" fill="#222222" rx="6" ry="6" style="stroke:#111111;stroke-width:1.0;"/><line style="stroke:#181818;stroke-width:1.0;" x1="455.7813" x2="455.7813" y1="69.6211" y2="89.6211"/><polygon fill="#181818" points="451.7813,79.6211,455.7813,89.6211,459.7813,79.6211,455.7813,83.6211" style="stroke:#181818;stroke-width:1.0;"/><line style="stroke:#181818;stroke-width:1.0;" x1="87" x2="87" y1="231.5039" y2="266.5039"/><polygon fill="#181818" points="83,256.5039,87,266.5039,91,256.5039,87,260.5039" style="stroke:#181818;stroke-width:1.0;"/><line style="stroke:#181818;stroke-width:1.0;" x1="768.5625" x2="429" y1="294.4648" y2="294.4648"/><line style="stroke:#181818;stroke-width:1.0;" x1="429" x2="429" y1="294.4648" y2="386.4648"/><polygon fill="#181818" points="425,376.4648,429,386.4648,433,376.4648,429,380.4648" style="stroke:#181818;stroke-width:1.0;"/><line style="stroke:#181818;stroke-width:1.0;" x1="429" x2="429" y1="422.4258" y2="492.3867"/><polygon fill="#181818" points="425,482.3867,429,492.3867,433,482.3867,429,486.3867" style="stroke:#181818;stroke-width:1.0;"/><line style="stroke:#181818;stroke-width:1.0;" x1="429" x2="429" y1="560.2695" y2="595.2695"/><polygon fill="#181818" points="425,585.2695,429,595.2695,433,585.2695,429,589.2695" style="stroke:#181818;stroke-width:1.0;"/><line style="stroke:#181818;stroke-width:1.0;" x1="247.5" x2="247.5" y1="784.0742" y2="819.0742"/><polygon fill="#181818" points="243.5,809.0742,247.5,819.0742,251.5,809.0742,247.5,813.0742" style="stroke:#181818;stroke-width:1.0;"/><line style="stroke:#181818;stroke-width:1.0;" x1="481.5" x2="481.5" y1="786.1523" y2="821.1523"/><polygon fill="#181818" points="477.5,811.1523,481.5,821.1523,485.5,811.1523,481.5,815.1523" style="stroke:#181818;stroke-width:1.0;"/><line style="stroke:#181818;stroke-width:1.0;" x1="543.5" x2="481.5" y1="728.1914" y2="728.1914"/><line style="stroke:#181818;stroke-width:1.0;" x1="481.5" x2="481.5" y1="728.1914" y2="750.1914"/><polygon fill="#181818" points="477.5,740.1914,481.5,750.1914,485.5,740.1914,481.5,744.1914" style="stroke:#181818;stroke-width:1.0;"/><line style="stroke:#181818;stroke-width:1.0;" x1="677.5" x2="739.5" y1="728.1914" y2="728.1914"/><line style="stroke:#181818;stroke-width:1.0;" x1="739.5" x2="739.5" y1="728.1914" y2="750.1914"/><polygon fill="#181818" points="735.5,740.1914,739.5,750.1914,743.5,740.1914,739.5,744.1914" style="stroke:#181818;stroke-width:1.0;"/><line style="stroke:#181818;stroke-width:1.0;" x1="481.5" x2="481.5" y1="857.1133" y2="875.1133"/><line style="stroke:#181818;stroke-width:1.0;" x1="481.5" x2="598.5" y1="875.1133" y2="875.1133"/><polygon fill="#181818" points="588.5,871.1133,598.5,875.1133,588.5,879.1133,592.5,875.1133" style="stroke:#181818;stroke-width:1.0;"/><line style="stroke:#181818;stroke-width:1.0;" x1="739.5" x2="739.5" y1="786.1523" y2="875.1133"/><line style="stroke:#181818;stroke-width:1.0;" x1="739.5" x2="622.5" y1="875.1133" y2="875.1133"/><polygon fill="#181818" points="632.5,871.1133,622.5,875.1133,632.5,879.1133,628.5,875.1133" style="stroke:#181818;stroke-width:1.0;"/><line style="stroke:#181818;stroke-width:1.0;" x1="348.5" x2="247.5" y1="694.1914" y2="694.1914"/><line style="stroke:#181818;stroke-width:1.0;" x1="247.5" x2="247.5" y1="694.1914" y2="716.1914"/><polygon fill="#181818" points="243.5,706.1914,247.5,716.1914,251.5,706.1914,247.5,710.1914" style="stroke:#181818;stroke-width:1.0;"/><line style="stroke:#181818;stroke-width:1.0;" x1="509.5" x2="610.5" y1="694.1914" y2="694.1914"/><line style="stroke:#181818;stroke-width:1.0;" x1="610.5" x2="610.5" y1="694.1914" y2="716.1914"/><polygon fill="#181818" points="606.5,706.1914,610.5,716.1914,614.5,706.1914,610.5,710.1914" style="stroke:#181818;stroke-width:1.0;"/><line style="stroke:#181818;stroke-width:1.0;" x1="247.5" x2="247.5" y1="855.0352" y2="905.1133"/><line style="stroke:#181818;stroke-width:1.0;" x1="247.5" x2="417" y1="905.1133" y2="905.1133"/><polygon fill="#181818" points="407,901.1133,417,905.1133,407,909.1133,411,905.1133" style="stroke:#181818;stroke-width:1.0;"/><line style="stroke:#181818;stroke-width:1.0;" x1="610.5" x2="610.5" y1="887.1133" y2="905.1133"/><line style="stroke:#181818;stroke-width:1.0;" x1="610.5" x2="441" y1="905.1133" y2="905.1133"/><polygon fill="#181818" points="451,901.1133,441,905.1133,451,909.1133,447,905.1133" style="stroke:#181818;stroke-width:1.0;"/><line style="stroke:#181818;stroke-width:1.0;" x1="429" x2="429" y1="647.1914" y2="682.1914"/><polygon fill="#181818" points="425,672.1914,429,682.1914,433,672.1914,429,676.1914" style="stroke:#181818;stroke-width:1.0;"/><line style="stroke:#181818;stroke-width:1.0;" x1="1190.125" x2="1079.25" y1="328.4648" y2="328.4648"/><line style="stroke:#181818;stroke-width:1.0;" x1="1079.25" x2="1079.25" y1="328.4648" y2="490.4258"/><polygon fill="#181818" points="1075.25,480.4258,1079.25,490.4258,1083.25,480.4258,1079.25,484.4258" style="stroke:#181818;stroke-width:1.0;"/><line style="stroke:#181818;stroke-width:1.0;" x1="1079.25" x2="1079.25" y1="526.3867" y2="561.3867"/><polygon fill="#181818" points="1075.25,551.3867,1079.25,561.3867,1083.25,551.3867,1079.25,555.3867" style="stroke:#181818;stroke-width:1.0;"/><line style="stroke:#181818;stroke-width:1.0;" x1="977" x2="977" y1="734.2305" y2="769.2305"/><polygon fill="#181818" points="973,759.2305,977,769.2305,981,759.2305,977,763.2305" style="stroke:#181818;stroke-width:1.0;"/><line style="stroke:#181818;stroke-width:1.0;" x1="1181.5" x2="1181.5" y1="750.1914" y2="785.1914"/><polygon fill="#181818" points="1177.5,775.1914,1181.5,785.1914,1185.5,775.1914,1181.5,779.1914" style="stroke:#181818;stroke-width:1.0;"/><line style="stroke:#181818;stroke-width:1.0;" x1="1019.25" x2="977" y1="676.2695" y2="676.2695"/><line style="stroke:#181818;stroke-width:1.0;" x1="977" x2="977" y1="676.2695" y2="698.2695"/><polygon fill="#181818" points="973,688.2695,977,698.2695,981,688.2695,977,692.2695" style="stroke:#181818;stroke-width:1.0;"/><line style="stroke:#181818;stroke-width:1.0;" x1="1139.25" x2="1181.5" y1="676.2695" y2="676.2695"/><line style="stroke:#181818;stroke-width:1.0;" x1="1181.5" x2="1181.5" y1="676.2695" y2="698.2695"/><polygon fill="#181818" points="1177.5,688.2695,1181.5,698.2695,1185.5,688.2695,1181.5,692.2695" style="stroke:#181818;stroke-width:1.0;"/><line style="stroke:#181818;stroke-width:1.0;" x1="977" x2="977" y1="805.1914" y2="839.1523"/><line style="stroke:#181818;stroke-width:1.0;" x1="977" x2="1067.25" y1="839.1523" y2="839.1523"/><polygon fill="#181818" points="1057.25,835.1523,1067.25,839.1523,1057.25,843.1523,1061.25,839.1523" style="stroke:#181818;stroke-width:1.0;"/><line style="stroke:#181818;stroke-width:1.0;" x1="1181.5" x2="1181.5" y1="821.1523" y2="839.1523"/><line style="stroke:#181818;stroke-width:1.0;" x1="1181.5" x2="1091.25" y1="839.1523" y2="839.1523"/><polygon fill="#181818" points="1101.25,835.1523,1091.25,839.1523,1101.25,843.1523,1097.25,839.1523" style="stroke:#181818;stroke-width:1.0;"/><line style="stroke:#181818;stroke-width:1.0;" x1="1079.25" x2="1079.25" y1="629.2695" y2="664.2695"/><polygon fill="#181818" points="1075.25,654.2695,1079.25,664.2695,1083.25,654.2695,1079.25,658.2695" style="stroke:#181818;stroke-width:1.0;"/><line style="stroke:#181818;stroke-width:1.0;" x1="1405.5" x2="1405.5" y1="420.4258" y2="465.4258"/><polygon fill="#181818" points="1401.5,455.4258,1405.5,465.4258,1409.5,455.4258,1405.5,459.4258" style="stroke:#181818;stroke-width:1.0;"/><line style="stroke:#181818;stroke-width:1.0;" x1="1546.5" x2="1556.5" y1="362.4648" y2="362.4648"/><line style="stroke:#181818;stroke-width:1.0;" x1="1556.5" x2="1556.5" y1="362.4648" y2="442.4258"/><polygon fill="#181818" points="1552.5,432.4258,1556.5,442.4258,1560.5,432.4258,1556.5,436.4258" style="stroke:#181818;stroke-width:1.0;"/><line style="stroke:#181818;stroke-width:1.0;" x1="1415.5" x2="1405.5" y1="362.4648" y2="362.4648"/><line style="stroke:#181818;stroke-width:1.0;" x1="1405.5" x2="1405.5" y1="362.4648" y2="384.4648"/><polygon fill="#181818" points="1401.5,374.4648,1405.5,384.4648,1409.5,374.4648,1405.5,378.4648" style="stroke:#181818;stroke-width:1.0;"/><line style="stroke:#181818;stroke-width:1.0;" x1="1370.125" x2="1481" y1="328.4648" y2="328.4648"/><line style="stroke:#181818;stroke-width:1.0;" x1="1481" x2="1481" y1="328.4648" y2="350.4648"/><polygon fill="#181818" points="1477,340.4648,1481,350.4648,1485,340.4648,1481,344.4648" style="stroke:#181818;stroke-width:1.0;"/><line style="stroke:#181818;stroke-width:1.0;" x1="1079.25" x2="1079.25" y1="851.1523" y2="935.1133"/><line style="stroke:#181818;stroke-width:1.0;" x1="1079.25" x2="866.5625" y1="935.1133" y2="935.1133"/><polygon fill="#181818" points="876.5625,931.1133,866.5625,935.1133,876.5625,939.1133,872.5625,935.1133" style="stroke:#181818;stroke-width:1.0;"/><line style="stroke:#181818;stroke-width:1.0;" x1="940.5625" x2="1280.125" y1="294.4648" y2="294.4648"/><line style="stroke:#181818;stroke-width:1.0;" x1="1280.125" x2="1280.125" y1="294.4648" y2="316.4648"/><polygon fill="#181818" points="1276.125,306.4648,1280.125,316.4648,1284.125,306.4648,1280.125,310.4648" style="stroke:#181818;stroke-width:1.0;"/><line style="stroke:#181818;stroke-width:1.0;" x1="429" x2="429" y1="917.1133" y2="935.1133"/><line style="stroke:#181818;stroke-width:1.0;" x1="429" x2="842.5625" y1="935.1133" y2="935.1133"/><polygon fill="#181818" points="832.5625,931.1133,842.5625,935.1133,832.5625,939.1133,836.5625,935.1133" style="stroke:#181818;stroke-width:1.0;"/><line style="stroke:#181818;stroke-width:1.0;" x1="854.5625" x2="854.5625" y1="247.4648" y2="282.4648"/><polygon fill="#181818" points="850.5625,272.4648,854.5625,282.4648,858.5625,272.4648,854.5625,276.4648" style="stroke:#181818;stroke-width:1.0;"/><line style="stroke:#181818;stroke-width:1.0;" x1="384.2813" x2="87" y1="157.582" y2="157.582"/><line style="stroke:#181818;stroke-width:1.0;" x1="87" x2="87" y1="157.582" y2="179.582"/><polygon fill="#181818" points="83,169.582,87,179.582,91,169.582,87,173.582" style="stroke:#181818;stroke-width:1.0;"/><line style="stroke:#181818;stroke-width:1.0;" x1="527.2813" x2="854.5625" y1="157.582" y2="157.582"/><line style="stroke:#181818;stroke-width:1.0;" x1="854.5625" x2="854.5625" y1="157.582" y2="179.582"/><polygon fill="#181818" points="850.5625,169.582,854.5625,179.582,858.5625,169.582,854.5625,173.582" style="stroke:#181818;stroke-width:1.0;"/><line style="stroke:#181818;stroke-width:1.0;" x1="87" x2="87" y1="302.4648" y2="965.1133"/><line style="stroke:#181818;stroke-width:1.0;" x1="87" x2="443.7813" y1="965.1133" y2="965.1133"/><polygon fill="#181818" points="433.7813,961.1133,443.7813,965.1133,433.7813,969.1133,437.7813,965.1133" style="stroke:#181818;stroke-width:1.0;"/><line style="stroke:#181818;stroke-width:1.0;" x1="854.5625" x2="854.5625" y1="947.1133" y2="965.1133"/><line style="stroke:#181818;stroke-width:1.0;" x1="854.5625" x2="467.7813" y1="965.1133" y2="965.1133"/><polygon fill="#181818" points="477.7813,961.1133,467.7813,965.1133,477.7813,969.1133,473.7813,965.1133" style="stroke:#181818;stroke-width:1.0;"/><line style="stroke:#181818;stroke-width:1.0;" x1="455.7813" x2="455.7813" y1="125.582" y2="145.582"/><polygon fill="#181818" points="451.7813,135.582,455.7813,145.582,459.7813,135.582,455.7813,139.582" style="stroke:#181818;stroke-width:1.0;"/><line style="stroke:#181818;stroke-width:1.0;" x1="455.7813" x2="455.7813" y1="977.1133" y2="997.1133"/><polygon fill="#181818" points="451.7813,987.1133,455.7813,997.1133,459.7813,987.1133,455.7813,991.1133" style="stroke:#181818;stroke-width:1.0;"/><line style="stroke:#181818;stroke-width:1.0;" x1="455.7813" x2="455.7813" y1="1049.0352" y2="1069.0352"/><polygon fill="#181818" points="451.7813,1059.0352,455.7813,1069.0352,459.7813,1059.0352,455.7813,1063.0352" style="stroke:#181818;stroke-width:1.0;"/><line style="stroke:#181818;stroke-width:1.0;" x1="455.7813" x2="455.7813" y1="1104.9961" y2="1124.9961"/><polygon fill="#181818" points="451.7813,1114.9961,455.7813,1124.9961,459.7813,1114.9961,455.7813,1118.9961" style="stroke:#181818;stroke-width:1.0;"/><!--SRC=[lLR1SjCm4BtxAtQ60-a1Se-7OLhAWGC3Kqe7k7WKQvrei2KZhLBQhsSbAx4TkqbE-93OqkhjljstQx_U4hLkjLosjT3ac_fjQPgbA4dj53szaKfih6ZUh954vduhtGf-18cLy3NTur-whjL6DwW9Ilv1csMag4Qukxdz0DS91n8EF6vHWs-b85nSGUKr6nWDoa4fwXfbbZaIbhBLzsW3Hfe6oJxbMQOgM4HGfO6Dj5m_GMCamlihe02x8ElnAWE-Lj-sdgHvrF3rqwsBI_81-0p8-orJoUFIgo-st2gvOZJo3jx5c8k4pHwnTWYBIl1VWarHCHPQQonKrZHnf_JMXXpiuuNME1MfCLYqiFZ7eoEKm0GtIF1Z-VDWnSw2JQHereQOerDCZNd1VMV-o-W1rHHKF1MkMgon1jSMV7DwSMNHCPpS5S-CM5WKvHPbVWbILxU2ZqeAMUpT7n8JitkSdCiIT46I3kxkVApitj-ZeYsq5dVAUDUxD4th-w0-Xg3oFkQGR1kJpSfZ3NSe0xypkfe6y31Qdmza54oIJZxQdLTYOtPARthBaHv7vrLreC85bQ4nmj4Z2cCE7G-KliH41Omd3ZAVc9qAh-3w5QNXwfR4zviQn-SdJNGUU8-cj29Hpu9ggQe-1Uanw_rr9JlA4InsmYgnvkbq97y8BN6YtYysnd_PL9fCaIAUbj0DHXqNSLgzyytvOfCQg_XPXEwR68TfslThfRIeX_PvDZd1AktCOaKXbVbStcT83cRuPOgIdBcPW4vgywL1Cskux_dZeJFJwnTfFpHMpDMS-cSwu2oRVjgbLulSmVFebN8g-wTU61UBELmRG-Qqdi_Lv9oBS_inWicRx9BqfY6J3HxItxx3FZEsXHl135oBA5tNPccwXeOPQAaRjevbkLV27PAtkljowbIHX-yXqsR_0000]--></g></svg>
